<mxfile host="app.diagrams.net" agent="Mozilla/5.0 (Macintosh; Intel Mac OS X 10_15_7) AppleWebKit/537.36 (KHTML, like Gecko) Chrome/129.0.0.0 Safari/537.36" version="25.0.3">
  <diagram name="Page-1" id="e1eXuWaU9WfsJ-PKviq6">
    <mxGraphModel dx="727" dy="1343" grid="1" gridSize="10" guides="1" tooltips="1" connect="1" arrows="1" fold="1" page="1" pageScale="1" pageWidth="850" pageHeight="1100" math="0" shadow="0">
      <root>
        <mxCell id="0" />
        <mxCell id="1" parent="0" />
        <mxCell id="fQQwxeyHgZwv-CVo4GR3-3" style="edgeStyle=orthogonalEdgeStyle;rounded=0;orthogonalLoop=1;jettySize=auto;html=1;exitX=0.5;exitY=1;exitDx=0;exitDy=0;entryX=0.5;entryY=0;entryDx=0;entryDy=0;" edge="1" parent="1" source="fQQwxeyHgZwv-CVo4GR3-1" target="fQQwxeyHgZwv-CVo4GR3-2">
          <mxGeometry relative="1" as="geometry" />
        </mxCell>
        <mxCell id="fQQwxeyHgZwv-CVo4GR3-1" value="LLM-Integration Issue Type" style="whiteSpace=wrap;html=1;" vertex="1" parent="1">
          <mxGeometry x="350" y="490" width="120" height="60" as="geometry" />
        </mxCell>
        <mxCell id="fQQwxeyHgZwv-CVo4GR3-7" style="edgeStyle=orthogonalEdgeStyle;rounded=0;orthogonalLoop=1;jettySize=auto;html=1;exitX=0.25;exitY=1;exitDx=0;exitDy=0;entryX=0.5;entryY=0;entryDx=0;entryDy=0;" edge="1" parent="1" source="fQQwxeyHgZwv-CVo4GR3-2" target="fQQwxeyHgZwv-CVo4GR3-5">
          <mxGeometry relative="1" as="geometry" />
        </mxCell>
        <mxCell id="fQQwxeyHgZwv-CVo4GR3-8" value="Correct" style="edgeLabel;html=1;align=center;verticalAlign=middle;resizable=0;points=[];" vertex="1" connectable="0" parent="fQQwxeyHgZwv-CVo4GR3-7">
          <mxGeometry x="0.0571" y="-3" relative="1" as="geometry">
            <mxPoint as="offset" />
          </mxGeometry>
        </mxCell>
        <mxCell id="fQQwxeyHgZwv-CVo4GR3-9" style="edgeStyle=orthogonalEdgeStyle;rounded=0;orthogonalLoop=1;jettySize=auto;html=1;exitX=0.75;exitY=1;exitDx=0;exitDy=0;" edge="1" parent="1" source="fQQwxeyHgZwv-CVo4GR3-2" target="fQQwxeyHgZwv-CVo4GR3-6">
          <mxGeometry relative="1" as="geometry" />
        </mxCell>
        <mxCell id="fQQwxeyHgZwv-CVo4GR3-10" value="Incorrect" style="edgeLabel;html=1;align=center;verticalAlign=middle;resizable=0;points=[];" vertex="1" connectable="0" parent="fQQwxeyHgZwv-CVo4GR3-9">
          <mxGeometry x="-0.0769" relative="1" as="geometry">
            <mxPoint as="offset" />
          </mxGeometry>
        </mxCell>
        <mxCell id="fQQwxeyHgZwv-CVo4GR3-2" value="Intent" style="whiteSpace=wrap;html=1;" vertex="1" parent="1">
          <mxGeometry x="350" y="620" width="120" height="60" as="geometry" />
        </mxCell>
        <mxCell id="fQQwxeyHgZwv-CVo4GR3-13" style="edgeStyle=orthogonalEdgeStyle;rounded=0;orthogonalLoop=1;jettySize=auto;html=1;exitX=0.25;exitY=1;exitDx=0;exitDy=0;" edge="1" parent="1" source="fQQwxeyHgZwv-CVo4GR3-5" target="fQQwxeyHgZwv-CVo4GR3-11">
          <mxGeometry relative="1" as="geometry" />
        </mxCell>
        <mxCell id="fQQwxeyHgZwv-CVo4GR3-14" value="YES" style="edgeLabel;html=1;align=center;verticalAlign=middle;resizable=0;points=[];" vertex="1" connectable="0" parent="fQQwxeyHgZwv-CVo4GR3-13">
          <mxGeometry x="0.0267" y="-7" relative="1" as="geometry">
            <mxPoint as="offset" />
          </mxGeometry>
        </mxCell>
        <mxCell id="fQQwxeyHgZwv-CVo4GR3-17" style="edgeStyle=orthogonalEdgeStyle;rounded=0;orthogonalLoop=1;jettySize=auto;html=1;exitX=0.75;exitY=1;exitDx=0;exitDy=0;entryX=0.5;entryY=0;entryDx=0;entryDy=0;" edge="1" parent="1" source="fQQwxeyHgZwv-CVo4GR3-5" target="fQQwxeyHgZwv-CVo4GR3-12">
          <mxGeometry relative="1" as="geometry" />
        </mxCell>
        <mxCell id="fQQwxeyHgZwv-CVo4GR3-18" value="NO" style="edgeLabel;html=1;align=center;verticalAlign=middle;resizable=0;points=[];" vertex="1" connectable="0" parent="fQQwxeyHgZwv-CVo4GR3-17">
          <mxGeometry x="-0.0667" y="2" relative="1" as="geometry">
            <mxPoint as="offset" />
          </mxGeometry>
        </mxCell>
        <mxCell id="fQQwxeyHgZwv-CVo4GR3-5" value="Repairable" style="whiteSpace=wrap;html=1;" vertex="1" parent="1">
          <mxGeometry x="230" y="730" width="120" height="60" as="geometry" />
        </mxCell>
        <mxCell id="fQQwxeyHgZwv-CVo4GR3-6" value="Real Intent Classification" style="whiteSpace=wrap;html=1;" vertex="1" parent="1">
          <mxGeometry x="460" y="730" width="120" height="60" as="geometry" />
        </mxCell>
        <mxCell id="fQQwxeyHgZwv-CVo4GR3-21" style="edgeStyle=orthogonalEdgeStyle;rounded=0;orthogonalLoop=1;jettySize=auto;html=1;exitX=0.25;exitY=1;exitDx=0;exitDy=0;entryX=0.5;entryY=0;entryDx=0;entryDy=0;" edge="1" parent="1" source="fQQwxeyHgZwv-CVo4GR3-11" target="fQQwxeyHgZwv-CVo4GR3-19">
          <mxGeometry relative="1" as="geometry" />
        </mxCell>
        <mxCell id="fQQwxeyHgZwv-CVo4GR3-22" value="YES" style="edgeLabel;html=1;align=center;verticalAlign=middle;resizable=0;points=[];" vertex="1" connectable="0" parent="fQQwxeyHgZwv-CVo4GR3-21">
          <mxGeometry x="-0.0615" y="-3" relative="1" as="geometry">
            <mxPoint as="offset" />
          </mxGeometry>
        </mxCell>
        <mxCell id="fQQwxeyHgZwv-CVo4GR3-23" style="edgeStyle=orthogonalEdgeStyle;rounded=0;orthogonalLoop=1;jettySize=auto;html=1;exitX=0.75;exitY=1;exitDx=0;exitDy=0;" edge="1" parent="1" source="fQQwxeyHgZwv-CVo4GR3-11" target="fQQwxeyHgZwv-CVo4GR3-20">
          <mxGeometry relative="1" as="geometry" />
        </mxCell>
        <mxCell id="fQQwxeyHgZwv-CVo4GR3-24" value="NO" style="edgeLabel;html=1;align=center;verticalAlign=middle;resizable=0;points=[];" vertex="1" connectable="0" parent="fQQwxeyHgZwv-CVo4GR3-23">
          <mxGeometry x="0.0333" y="1" relative="1" as="geometry">
            <mxPoint as="offset" />
          </mxGeometry>
        </mxCell>
        <mxCell id="fQQwxeyHgZwv-CVo4GR3-11" value="Show Repair Widget" style="whiteSpace=wrap;html=1;" vertex="1" parent="1">
          <mxGeometry x="150" y="860" width="120" height="60" as="geometry" />
        </mxCell>
        <mxCell id="fQQwxeyHgZwv-CVo4GR3-12" value="Repairable" style="whiteSpace=wrap;html=1;" vertex="1" parent="1">
          <mxGeometry x="340" y="860" width="120" height="60" as="geometry" />
        </mxCell>
        <mxCell id="fQQwxeyHgZwv-CVo4GR3-19" value="Repaired successfuly" style="whiteSpace=wrap;html=1;" vertex="1" parent="1">
          <mxGeometry x="70" y="990" width="120" height="60" as="geometry" />
        </mxCell>
        <mxCell id="fQQwxeyHgZwv-CVo4GR3-27" style="edgeStyle=orthogonalEdgeStyle;rounded=0;orthogonalLoop=1;jettySize=auto;html=1;exitX=0.25;exitY=1;exitDx=0;exitDy=0;entryX=0.5;entryY=0;entryDx=0;entryDy=0;" edge="1" parent="1" source="fQQwxeyHgZwv-CVo4GR3-20" target="fQQwxeyHgZwv-CVo4GR3-25">
          <mxGeometry relative="1" as="geometry" />
        </mxCell>
        <mxCell id="fQQwxeyHgZwv-CVo4GR3-28" style="edgeStyle=orthogonalEdgeStyle;rounded=0;orthogonalLoop=1;jettySize=auto;html=1;exitX=0.75;exitY=1;exitDx=0;exitDy=0;entryX=0.5;entryY=0;entryDx=0;entryDy=0;" edge="1" parent="1" source="fQQwxeyHgZwv-CVo4GR3-20" target="fQQwxeyHgZwv-CVo4GR3-26">
          <mxGeometry relative="1" as="geometry" />
        </mxCell>
        <mxCell id="fQQwxeyHgZwv-CVo4GR3-20" value="Escalate" style="whiteSpace=wrap;html=1;" vertex="1" parent="1">
          <mxGeometry x="240" y="990" width="120" height="60" as="geometry" />
        </mxCell>
        <mxCell id="fQQwxeyHgZwv-CVo4GR3-25" value="Failed Reason" style="whiteSpace=wrap;html=1;" vertex="1" parent="1">
          <mxGeometry x="170" y="1130" width="120" height="60" as="geometry" />
        </mxCell>
        <mxCell id="fQQwxeyHgZwv-CVo4GR3-26" value="Agent Actions" style="whiteSpace=wrap;html=1;" vertex="1" parent="1">
          <mxGeometry x="350" y="1130" width="120" height="60" as="geometry" />
        </mxCell>
      </root>
    </mxGraphModel>
  </diagram>
</mxfile>
